<mxfile host="65bd71144e">
    <diagram name="Seite-1" id="f44wYk-LAkck-QePjLqC">
        <mxGraphModel dx="1301" dy="444" grid="1" gridSize="10" guides="1" tooltips="1" connect="1" arrows="1" fold="1" page="1" pageScale="1" pageWidth="827" pageHeight="1169" math="0" shadow="0">
            <root>
                <mxCell id="0"/>
                <mxCell id="1" parent="0"/>
                <mxCell id="y8kAHJ0jC7C6Op4tlGA0-1" value="README" style="rounded=0;whiteSpace=wrap;html=1;" parent="1" vertex="1">
                    <mxGeometry x="211.5" y="80" width="120" height="60" as="geometry"/>
                </mxCell>
                <mxCell id="y8kAHJ0jC7C6Op4tlGA0-2" value="Frontend" style="rounded=0;whiteSpace=wrap;html=1;" parent="1" vertex="1">
                    <mxGeometry x="-70" y="180" width="120" height="60" as="geometry"/>
                </mxCell>
                <mxCell id="y8kAHJ0jC7C6Op4tlGA0-3" value="Backend" style="rounded=0;whiteSpace=wrap;html=1;" parent="1" vertex="1">
                    <mxGeometry x="71" y="180" width="120" height="60" as="geometry"/>
                </mxCell>
                <mxCell id="y8kAHJ0jC7C6Op4tlGA0-4" value="DB" style="rounded=0;whiteSpace=wrap;html=1;" parent="1" vertex="1">
                    <mxGeometry x="212" y="180" width="120" height="60" as="geometry"/>
                </mxCell>
                <mxCell id="y8kAHJ0jC7C6Op4tlGA0-5" value="Softwarequality" style="rounded=0;whiteSpace=wrap;html=1;" parent="1" vertex="1">
                    <mxGeometry x="352" y="180" width="120" height="60" as="geometry"/>
                </mxCell>
                <mxCell id="y8kAHJ0jC7C6Op4tlGA0-6" value="ADR" style="rounded=0;whiteSpace=wrap;html=1;" parent="1" vertex="1">
                    <mxGeometry x="493" y="180" width="120" height="60" as="geometry"/>
                </mxCell>
                <mxCell id="y8kAHJ0jC7C6Op4tlGA0-7" value="Warnwerte" style="rounded=0;whiteSpace=wrap;html=1;" parent="1" vertex="1">
                    <mxGeometry x="-70" y="270" width="120" height="60" as="geometry"/>
                </mxCell>
                <mxCell id="y8kAHJ0jC7C6Op4tlGA0-8" value="Dashboard" style="rounded=0;whiteSpace=wrap;html=1;" parent="1" vertex="1">
                    <mxGeometry x="-69.5" y="350" width="120" height="60" as="geometry"/>
                </mxCell>
                <mxCell id="y8kAHJ0jC7C6Op4tlGA0-9" value="API" style="rounded=0;whiteSpace=wrap;html=1;" parent="1" vertex="1">
                    <mxGeometry x="71" y="270" width="120" height="60" as="geometry"/>
                </mxCell>
                <mxCell id="y8kAHJ0jC7C6Op4tlGA0-10" value="MQTT" style="whiteSpace=wrap;html=1;rounded=0;" parent="1" vertex="1">
                    <mxGeometry x="71" y="350" width="120" height="60" as="geometry"/>
                </mxCell>
                <mxCell id="y8kAHJ0jC7C6Op4tlGA0-13" value="Tests" style="whiteSpace=wrap;html=1;rounded=0;" parent="1" vertex="1">
                    <mxGeometry x="71" y="430" width="120" height="60" as="geometry"/>
                </mxCell>
                <mxCell id="y8kAHJ0jC7C6Op4tlGA0-14" value="BranchingStrategy" style="rounded=0;whiteSpace=wrap;html=1;" parent="1" vertex="1">
                    <mxGeometry x="352" y="270" width="120" height="60" as="geometry"/>
                </mxCell>
                <mxCell id="y8kAHJ0jC7C6Op4tlGA0-15" value="Exceptions" style="rounded=0;whiteSpace=wrap;html=1;" parent="1" vertex="1">
                    <mxGeometry x="352" y="350" width="120" height="60" as="geometry"/>
                </mxCell>
                <mxCell id="y8kAHJ0jC7C6Op4tlGA0-16" value="Logging" style="rounded=0;whiteSpace=wrap;html=1;" parent="1" vertex="1">
                    <mxGeometry x="352" y="430" width="120" height="60" as="geometry"/>
                </mxCell>
                <mxCell id="y8kAHJ0jC7C6Op4tlGA0-17" value="Grafana" style="rounded=0;whiteSpace=wrap;html=1;" parent="1" vertex="1">
                    <mxGeometry x="352" y="510" width="120" height="60" as="geometry"/>
                </mxCell>
                <mxCell id="y8kAHJ0jC7C6Op4tlGA0-18" value="Uptime-Monitoring" style="rounded=0;whiteSpace=wrap;html=1;" parent="1" vertex="1">
                    <mxGeometry x="352" y="585" width="120" height="60" as="geometry"/>
                </mxCell>
                <mxCell id="y8kAHJ0jC7C6Op4tlGA0-19" value="Frontend-Loadtest" style="rounded=0;whiteSpace=wrap;html=1;" parent="1" vertex="1">
                    <mxGeometry x="352" y="660" width="120" height="60" as="geometry"/>
                </mxCell>
                <mxCell id="y8kAHJ0jC7C6Op4tlGA0-20" value="Workflow" style="rounded=0;whiteSpace=wrap;html=1;" parent="1" vertex="1">
                    <mxGeometry x="630" y="180" width="120" height="60" as="geometry"/>
                </mxCell>
                <mxCell id="2" value="Alerting Arduino offline" style="whiteSpace=wrap;html=1;rounded=0;" vertex="1" parent="1">
                    <mxGeometry x="71" y="510" width="120" height="60" as="geometry"/>
                </mxCell>
            </root>
        </mxGraphModel>
    </diagram>
</mxfile>